<svg width="640" height="640" viewBox="0 0 640 640" xmlns="http://www.w3.org/2000/svg">
  <defs>
    <linearGradient id="grad" x1="0%" y1="0%" x2="0%" y2="100%">
      <stop offset="0%" stop-color="#2BE28F"/>
      <stop offset="100%" stop-color="#14A299"/>
    </linearGradient>
    <clipPath id="icon_clip">
      <rect x="0" y="0" width="640" height="640" rx="160"/>
    </clipPath>
  </defs>
  
  <!-- The clipPath ensures transparency outside the rounded boundary -->
  <g clip-path="url(#icon_clip)">
    <!-- Localized white underlay (hand and text area only) -->
    <circle cx="320" cy="280" r="240" fill="white"/>
    <rect x="150" y="520" width="340" height="100" rx="50" fill="white"/>
    
    <!-- Background Trace (filled with the signature Green Gradient) -->
    <g transform="translate(0.000000,640.000000) scale(0.100000,-0.100000)" fill="url(#grad)" stroke="none">
      
<path d="M945 6375 c-55 -12 -119 -30 -143 -38 -51 -19 -212 -98 -229 -112 -6
-5 -35 -26 -64 -45 -29 -19 -67 -50 -85 -67 -18 -18 -35 -33 -37 -33 -8 0 -67
-58 -67 -66 0 -4 -15 -22 -32 -39 -18 -17 -40 -41 -48 -54 -8 -12 -23 -32 -32
-43 -10 -12 -18 -25 -18 -29 0 -4 -6 -14 -12 -21 -24 -25 -96 -182 -122 -263
-59 -184 -56 -48 -56 -2370 0 -2335 -4 -2192 59 -2376 25 -75 97 -236 111
-249 3 -3 24 -32 46 -65 23 -33 70 -91 105 -129 64 -69 240 -209 279 -221 11
-3 20 -11 20 -16 0 -5 4 -9 10 -9 5 0 42 -15 82 -34 40 -19 120 -47 178 -62
l105 -29 2210 0 2210 0 103 29 c56 15 131 42 165 58 34 17 71 35 82 40 27 12
55 29 92 55 17 13 34 23 37 23 3 0 14 8 25 17 10 10 38 34 62 53 48 38 169
161 169 172 0 4 6 13 13 20 44 46 141 231 180 343 61 172 58 32 54 2415 -2
1977 -4 2180 -19 2235 -9 33 -21 76 -26 95 -5 19 -23 65 -41 101 -17 36 -31
70 -31 76 0 5 -9 18 -20 28 -11 10 -20 26 -20 37 0 10 -4 18 -9 18 -5 0 -12 8
-16 19 -3 10 -13 28 -23 39 -9 11 -24 31 -32 43 -8 13 -30 39 -47 57 -18 19
-33 36 -33 39 0 5 -60 63 -65 63 -2 0 -16 12 -32 28 -16 15 -55 45 -87 67 -32
22 -64 46 -71 53 -8 6 -18 12 -23 12 -5 0 -20 8 -33 18 -26 20 -122 63 -209
94 -140 50 -63 48 -2365 47 l-2150 -1 -100 -23z m2623 -871 c99 -41 156 -148
132 -245 -6 -24 -15 -62 -20 -84 -10 -49 -68 -283 -116 -465 -20 -74 -39 -155
-43 -180 -5 -25 -27 -117 -51 -205 -23 -88 -46 -176 -51 -195 -8 -33 -28 -89
-49 -135 -5 -11 -23 -64 -40 -117 -26 -80 -35 -99 -53 -103 -85 -17 -138 -32
-342 -95 -347 -108 -528 -162 -544 -164 -11 -1 -14 27 -15 149 -1 105 -6 168
-18 210 -9 33 -19 76 -22 95 -3 19 -14 71 -25 115 -39 166 -70 301 -74 330 -3
17 -22 100 -42 185 -20 85 -38 166 -40 180 -3 14 -25 115 -50 225 -46 204 -53
259 -35 270 6 3 10 16 10 28 0 29 55 87 108 115 50 26 114 29 165 7 39 -16 99
-69 115 -101 11 -21 57 -197 65 -249 3 -16 10 -43 16 -58 6 -16 11 -40 11 -55
0 -15 7 -45 14 -67 8 -22 17 -53 20 -70 3 -16 10 -48 15 -70 45 -175 110 -445
114 -465 2 -14 7 -32 10 -40 3 -8 20 -76 38 -150 17 -74 36 -140 41 -147 5 -6
23 -15 40 -18 43 -10 72 21 87 93 7 31 31 122 53 202 22 80 42 159 45 175 2
17 16 68 29 114 13 46 24 91 24 100 0 10 3 21 7 25 4 3 8 12 9 19 2 7 15 57
29 112 14 55 30 119 35 143 5 24 12 48 16 53 3 5 7 22 10 37 9 56 97 378 109
402 45 87 172 132 263 94z m215 -1369 c129 -59 160 -168 87 -309 -17 -32 -30
-61 -30 -65 0 -5 -7 -26 -16 -47 -9 -22 -16 -41 -16 -44 0 -3 -10 -25 -23 -50
-24 -44 -46 -95 -50 -116 -2 -6 -15 -37 -30 -70 -14 -32 -30 -68 -35 -79 -49
-119 -89 -168 -149 -185 -50 -14 -74 -13 -121 6 -43 17 -52 42 -24 65 25 21
72 131 85 201 15 80 5 163 -25 220 l-23 43 19 55 c10 30 20 60 22 65 2 6 5 15
6 20 10 43 66 187 83 215 28 46 36 54 83 78 52 28 92 27 157 -3z m452 -254
c54 -34 85 -66 88 -88 2 -12 6 -26 10 -29 11 -11 8 -72 -3 -79 -5 -3 -10 -14
-10 -25 0 -17 -47 -132 -70 -172 -5 -10 -10 -22 -10 -28 0 -6 -11 -32 -24 -59
-13 -27 -26 -61 -30 -75 -3 -14 -11 -26 -16 -26 -6 0 -10 -10 -10 -22 0 -13
-9 -38 -20 -56 -11 -18 -20 -38 -20 -45 0 -7 -19 -31 -42 -54 -42 -41 -94 -60
-143 -55 -39 5 -93 34 -106 58 -7 13 -16 24 -20 24 -4 0 -13 16 -19 36 -14 42
-7 102 17 148 10 17 18 33 18 36 3 10 17 46 29 75 7 17 14 32 14 35 1 6 30 73
65 150 13 30 30 72 36 92 7 21 17 40 22 43 5 4 9 14 9 24 0 21 56 82 90 98 39
18 111 15 145 -6z m-932 -259 c49 -43 41 -188 -15 -276 -29 -46 -50 -69 -89
-101 -41 -35 -89 -67 -89 -60 0 4 -7 -1 -16 -9 -8 -9 -22 -16 -30 -16 -8 0
-26 -7 -39 -16 -14 -9 -25 -13 -25 -10 0 4 -11 -1 -25 -10 -14 -9 -25 -13 -25
-9 0 4 -6 3 -12 -2 -7 -5 -51 -20 -98 -33 -98 -27 -110 -34 -110 -66 0 -54 18
-72 89 -84 210 -36 378 -199 425 -412 9 -38 33 -58 70 -58 81 0 79 88 -6 267
-40 85 -183 231 -250 256 -29 10 -21 23 25 42 23 9 51 22 62 27 10 6 40 22 64
35 44 23 46 23 78 6 18 -10 33 -21 33 -25 0 -5 9 -8 20 -8 11 0 20 -4 20 -8 0
-11 51 -17 133 -16 55 1 78 7 127 32 l59 31 29 -39 c51 -69 126 -115 209 -126
51 -6 173 18 201 40 41 33 97 95 118 131 6 10 16 21 22 23 16 5 16 -203 1
-279 -6 -30 -12 -65 -15 -79 -10 -55 -31 -112 -80 -217 -23 -49 -23 -54 -10
-105 8 -29 25 -84 39 -123 47 -134 107 -324 107 -340 0 -21 -7 -20 -185 37
-71 23 -132 43 -135 43 -3 1 -12 4 -20 7 -8 3 -52 16 -97 28 l-82 23 -36 -22
c-20 -11 -42 -21 -50 -21 -7 0 -15 -4 -17 -8 -1 -5 -38 -23 -81 -41 -206 -85
-466 -97 -684 -30 -81 25 -243 98 -243 110 0 5 -7 9 -15 9 -8 0 -15 5 -15 10
0 6 -7 10 -15 10 -8 0 -15 5 -15 10 0 6 -6 10 -13 10 -35 0 -287 272 -287 309
0 6 -3 11 -8 11 -4 0 -24 35 -44 78 -121 251 -140 475 -56 633 43 79 127 163
173 171 11 1 23 7 26 11 3 5 12 9 20 10 8 2 19 5 24 8 6 4 82 27 170 53 177
52 377 113 415 126 14 5 36 12 50 14 40 8 161 43 166 48 9 10 40 5 57 -10z
m-2069 -2269 c78 -230 99 -292 113 -342 9 -33 24 6 178 469 l42 125 82 3 c62
2 81 0 81 -11 0 -18 -80 -240 -91 -252 -5 -5 -9 -15 -9 -22 0 -7 -22 -73 -48
-145 -27 -73 -66 -181 -87 -241 l-39 -107 -91 0 c-49 0 -95 4 -101 8 -9 6
-284 748 -284 766 0 3 37 6 83 6 l84 0 87 -257z m895 29 c90 -48 100 -79 103
-350 l3 -202 -67 0 c-66 0 -68 1 -68 25 0 16 -6 25 -15 25 -8 0 -15 -4 -15 -8
0 -4 -13 -16 -30 -25 -16 -10 -30 -15 -30 -12 0 3 -9 1 -20 -5 -49 -26 -168
-3 -212 40 -69 70 -73 192 -9 252 44 41 91 58 164 58 49 0 75 -6 110 -24 25
-14 47 -23 49 -21 2 3 1 30 -2 61 -5 43 -12 60 -30 74 -25 19 -65 30 -107 30
-28 0 -124 -39 -136 -54 -8 -12 -37 19 -37 41 0 7 -4 13 -10 13 -22 0 -8 36
23 56 68 43 110 53 212 51 62 -2 90 -7 124 -25z m572 12 c29 -9 66 -26 80 -38
l26 -22 -24 -41 -24 -41 -57 26 c-100 46 -202 29 -202 -34 0 -27 34 -48 95
-58 120 -21 175 -50 216 -112 35 -54 20 -149 -31 -196 -43 -39 -57 -45 -131
-58 -61 -10 -77 -9 -188 16 -24 5 -111 52 -111 60 0 14 29 71 42 82 13 10 25
7 71 -17 96 -50 201 -50 228 0 24 46 -13 78 -116 99 -161 32 -235 110 -205
218 12 45 67 100 119 118 50 18 147 17 212 -2z m1192 -3 c8 -6 16 -9 19 -6 2
3 23 -12 44 -32 59 -56 65 -87 62 -318 l-3 -200 -62 -3 c-62 -3 -63 -3 -63 23
0 23 -3 25 -22 19 -13 -4 -25 -10 -28 -14 -14 -20 -75 -40 -123 -40 -127 0
-211 79 -202 190 1 19 3 43 4 53 1 24 48 70 96 96 66 35 188 27 233 -16 7 -7
18 -13 23 -13 15 0 8 112 -8 128 -18 19 -78 42 -109 42 -30 0 -106 -20 -114
-31 -3 -3 -15 -11 -27 -17 -19 -11 -24 -8 -42 22 -12 18 -21 38 -21 43 0 18
37 44 97 69 51 22 69 24 145 21 49 -3 94 -10 101 -16z m692 0 c54 -26 98 -70
126 -128 21 -41 24 -63 24 -148 -1 -83 -4 -108 -23 -148 -74 -156 -227 -193
-369 -91 l-23 16 0 -141 0 -142 -67 3 -68 3 -3 393 -2 393 67 -3 c66 -3 68 -4
71 -30 4 -32 14 -35 33 -11 42 50 162 68 234 34z m683 3 c18 -8 53 -34 77 -59
53 -54 75 -118 75 -220 0 -104 -22 -167 -79 -226 -26 -27 -51 -46 -54 -42 -4
3 -7 1 -7 -5 0 -7 -3 -11 -7 -10 -5 0 -16 -2 -26 -7 -9 -4 -46 -6 -80 -3 -50
3 -72 10 -109 35 -26 17 -49 29 -52 25 -3 -3 -6 -66 -6 -139 l0 -134 -67 3
-68 3 0 390 0 390 63 3 62 3 6 -31 c4 -16 8 -30 11 -30 6 0 57 33 71 47 8 7
17 11 22 8 5 -3 12 -1 15 5 9 15 112 10 153 -6z m-2177 -187 c65 -182 75 -205
83 -196 2 2 29 74 60 159 84 231 79 224 150 228 32 2 63 -1 69 -7 6 -6 2 -25
-12 -53 -11 -25 -21 -47 -21 -51 0 -4 -25 -71 -56 -149 -30 -79 -71 -183 -90
-233 -96 -247 -123 -284 -220 -306 -64 -14 -119 -3 -118 24 0 9 1 35 2 57 l2
40 49 0 c43 0 52 4 70 29 34 47 36 81 8 152 -111 283 -141 360 -154 399 -8 25
-19 49 -24 55 -5 5 -9 17 -9 27 0 17 8 19 72 16 l71 -3 68 -188z"/>
<path d="M1909 1075 c-30 -16 -51 -60 -46 -94 10 -66 120 -94 188 -48 28 19
35 30 39 69 l6 46 -43 21 c-50 24 -106 26 -144 6z"/>
<path d="M3693 1075 c-47 -25 -58 -91 -23 -133 15 -19 33 -25 77 -29 50 -4 63
-1 93 19 31 21 35 29 38 74 3 47 1 51 -25 63 -46 21 -124 24 -160 6z"/>
<path d="M4396 1278 c-16 -6 -39 -20 -52 -31 -23 -19 -24 -27 -24 -133 l0
-113 35 -26 c70 -54 163 -43 207 25 65 101 31 254 -61 280 -44 12 -67 12 -105
-2z"/>
<path d="M5080 1279 c-14 -6 -37 -22 -52 -36 -27 -26 -28 -31 -28 -124 0 -83
3 -100 21 -123 44 -56 121 -71 188 -38 69 35 95 184 45 263 -38 60 -109 84
-174 58z"/>

    </g>
  </g>
</svg>