<svg width="1024" height="1024" viewBox="0 0 1024 1024" xmlns="http://www.w3.org/2000/svg">
  <defs>
    <linearGradient id="grad" x1="0%" y1="0%" x2="0%" y2="100%">
      <stop offset="0%" stop-color="#2BE28F"/>
      <stop offset="100%" stop-color="#14A299"/>
    </linearGradient>
  </defs>
  
  <!-- Идеальный фон с закруглением -->
  <rect width="1024" height="1024" rx="220" fill="url(#grad)"/>

  <!-- Рука, отцентрированная и без лишних артефактов -->
  <g transform="translate(256, 256) translate(0.000000,512.000000) scale(0.100000,-0.100000)" fill="white" stroke="none">
    
<path d="M2783 4883 c-28 -5 -109 -77 -128 -112 -7 -15 -34 -106 -59 -202 -68
-265 -171 -663 -200 -769 -13 -52 -45 -176 -71 -275 -25 -99 -53 -190 -61
-202 -25 -39 -84 -24 -98 25 -2 9 -18 73 -35 142 -16 69 -57 235 -90 370 -32
135 -87 362 -121 505 -34 143 -68 279 -76 302 -20 54 -89 118 -145 133 -96 26
-212 -20 -255 -101 -7 -15 -18 -48 -24 -73 -11 -51 -7 -72 205 -1016 96 -427
107 -485 107 -575 1 -55 -4 -117 -10 -137 -8 -28 -7 -38 1 -38 6 0 61 15 122
34 60 19 171 52 245 74 74 22 189 57 255 77 205 63 249 75 282 75 29 0 33 4
51 53 73 196 141 426 212 712 44 182 105 429 135 550 58 234 60 264 24 335
-47 94 -146 136 -266 113z"/>
<path d="M2968 3500 c-48 -26 -71 -60 -111 -166 -41 -106 -87 -248 -87 -265 0
-7 10 -33 22 -58 18 -37 23 -63 23 -136 0 -104 -19 -169 -71 -247 -19 -28 -33
-57 -30 -64 9 -23 70 -47 121 -47 55 0 98 18 133 56 13 13 77 152 143 308 67
156 131 304 142 329 16 32 22 64 22 112 0 58 -4 71 -31 110 -46 63 -95 88
-174 87 -45 0 -77 -6 -102 -19z"/>
<path d="M3435 3252 c-16 -11 -39 -30 -51 -43 -12 -13 -71 -144 -132 -292
-125 -299 -133 -334 -89 -412 64 -114 252 -111 313 6 31 60 196 446 216 505
32 92 11 161 -67 220 -49 37 -144 45 -190 16z"/>
<path d="M2565 2991 c-348 -103 -779 -237 -821 -256 -181 -80 -271 -284 -229
-520 61 -351 273 -636 591 -794 297 -147 630 -147 933 1 l109 54 54 -17 c331
-107 478 -148 478 -136 0 2 -38 120 -85 263 -47 142 -85 263 -85 268 0 5 16
43 36 84 74 158 111 385 89 558 l-7 58 -32 -63 c-65 -131 -149 -186 -281 -186
-67 0 -88 5 -130 27 -52 27 -90 63 -121 113 -10 17 -19 32 -20 34 -2 1 -19 -9
-38 -24 -100 -76 -246 -73 -358 6 l-29 21 -119 -59 c-66 -32 -119 -60 -120
-63 0 -3 24 -19 53 -37 80 -48 141 -107 195 -187 55 -83 108 -229 98 -271 -14
-54 -100 -51 -112 4 -46 220 -204 381 -419 426 -78 16 -95 28 -95 66 0 37 22
51 140 83 145 41 286 114 352 184 71 74 99 130 106 208 6 78 -4 130 -29 155
-23 23 -27 23 -104 0z"/>
<path d="M331 973 c0 -5 64 -183 143 -398 l142 -390 102 -3 c56 -1 102 -1 102
1 0 5 271 747 285 780 7 16 0 18 -86 15 l-93 -3 -100 -297 c-56 -164 -104
-298 -107 -298 -3 0 -30 71 -59 158 -29 86 -75 221 -102 300 l-50 142 -89 0
c-49 0 -89 -3 -88 -7z"/>
<path d="M1260 767 c-61 -17 -138 -57 -144 -74 -3 -8 6 -34 20 -58 l25 -43 57
30 c50 26 65 29 120 26 80 -5 103 -26 110 -97 2 -28 2 -51 -1 -51 -3 0 -23 10
-44 23 -30 18 -53 22 -113 22 -132 -1 -201 -57 -208 -170 -5 -77 19 -129 79
-171 38 -26 51 -29 118 -29 65 0 83 4 124 28 l47 28 0 -26 c0 -25 1 -25 75
-25 l75 0 0 209 c0 224 -8 270 -53 320 -52 56 -193 85 -287 58z m158 -347 c27
-17 32 -25 32 -60 0 -31 -5 -43 -24 -55 -87 -58 -196 -26 -196 58 0 16 10 38
25 52 32 33 114 35 163 5z"/>
<path d="M1852 762 c-90 -33 -132 -86 -132 -170 0 -93 54 -139 204 -174 96
-23 126 -40 126 -73 0 -74 -156 -73 -256 1 l-32 23 -31 -51 c-30 -48 -31 -52
-15 -69 59 -66 226 -97 339 -64 106 30 161 118 136 215 -20 75 -73 115 -186
140 -100 22 -125 31 -135 50 -31 57 63 89 161 55 24 -9 51 -23 62 -33 18 -16
20 -15 37 8 11 14 25 38 31 54 11 26 10 30 -12 47 -67 51 -211 71 -297 41z"/>
<path d="M3040 765 c-60 -17 -140 -60 -140 -76 0 -8 37 -87 45 -97 1 -1 28 11
60 28 120 63 235 23 235 -82 0 -36 -6 -37 -49 -16 -89 44 -217 29 -275 -31
-40 -42 -58 -110 -45 -172 26 -119 150 -178 282 -133 25 8 51 22 58 30 17 21
29 17 29 -11 0 -24 2 -25 75 -25 l75 0 0 210 c0 224 -7 265 -54 319 -52 59
-191 85 -296 56z m168 -345 c27 -17 32 -26 32 -57 0 -32 -6 -42 -34 -61 -46
-31 -116 -33 -154 -5 -40 30 -43 93 -6 122 36 28 116 29 162 1z"/>
<path d="M3785 768 c-16 -6 -46 -22 -65 -35 l-35 -23 -3 25 c-3 24 -6 25 -78
25 l-74 0 0 -380 0 -380 75 0 75 0 2 103 c0 56 1 110 0 120 -2 22 11 22 29 0
24 -28 92 -53 147 -53 101 0 193 70 229 175 23 68 23 195 0 261 -44 127 -186
203 -302 162z m115 -166 c67 -67 67 -187 0 -254 -33 -34 -43 -38 -86 -38 -58
0 -110 28 -124 66 -6 14 -10 63 -10 108 0 66 4 87 19 104 28 33 72 52 120 52
37 0 49 -6 81 -38z"/>
<path d="M4466 765 c-22 -8 -52 -23 -68 -35 l-28 -21 0 26 c0 25 -1 25 -79 25
l-79 0 0 -380 0 -380 79 0 79 0 0 120 0 120 45 -32 c35 -25 58 -33 105 -36
106 -8 188 41 240 144 21 42 25 63 25 149 0 132 -14 175 -78 240 -72 71 -153
92 -241 60z m113 -149 c55 -50 70 -184 28 -247 -29 -43 -60 -59 -119 -59 -39
0 -54 6 -83 31 l-35 31 0 104 0 104 43 31 c37 27 48 30 94 27 31 -3 61 -12 72
-22z"/>
<path d="M2230 756 c0 -2 50 -132 110 -290 l110 -286 -20 -40 c-24 -47 -52
-64 -95 -57 -30 5 -33 3 -39 -25 -12 -60 -15 -58 109 -58 l114 0 27 45 c14 25
59 129 99 233 40 103 98 251 129 330 31 79 56 145 56 148 0 2 -36 4 -80 4 -44
0 -80 -1 -80 -3 0 -11 -133 -364 -139 -370 -5 -5 -24 38 -44 95 -19 57 -50
142 -67 191 l-32 87 -79 0 c-43 0 -79 -2 -79 -4z"/>

  </g>
</svg>